<?xml version="1.0" encoding="UTF-8"?>
<!-- Generator: Adobe Illustrator 27.6.1, SVG Export Plug-In . SVG Version: 6.00 Build 0)  -->
<svg xmlns="http://www.w3.org/2000/svg" xmlns:xlink="http://www.w3.org/1999/xlink" version="1.1" id="Layer_2_00000170962151983874295530000001262685409815555486_" x="0px" y="0px" viewBox="0 0 197.1 196.9" style="enable-background:new 0 0 197.1 196.9;" xml:space="preserve">
<style type="text/css">
	.st0{fill:#FFFFFF;}
	.st1{fill:none;}
</style>
<g id="Layer_1-2">
	<g>
		<g>
			<circle cx="98.6" cy="97.8" r="40.8"></circle>
			<path class="st0" d="M149.4,76.3c-2.8-6.8-7.2-13-12.3-18.1s-11.6-8.9-18.4-11.7c-6.5-2.7-13.8-4.1-21.3-4.1s-15.2,0.3-21.7,3     c-6.8,2.8-12.4,8.1-17.5,13.2s-11,10.5-13.8,17.3c-2.7,6.5-1.8,14.5-1.8,22s0.5,14.8,3.3,21.4c2.8,6.8,8.5,11.5,13.6,16.6     c5.1,5.1,9.7,11.2,16.5,14c6.5,2.7,14,4.6,21.5,4.6s14.9-2.2,21.4-4.9c6.8-2.8,12.9-7.2,18-12.3c5.1-5.1,9.2-11.3,12-18.1     c2.7-6.5,5.8-13.8,5.8-21.3S152.1,82.9,149.4,76.3L149.4,76.3z M113.2,129.8l-11.9-1.8l3.4-23l-24.9,19.2l-7.3-9.6l21.8-16.8     L72.5,81.1l7.3-9.6l24.9,19.2l-3.4-23l11.9-1.8l4.7,32L113.2,129.8L113.2,129.8z"></path>
		</g>
		<rect class="st1" width="197.1" height="196.9"></rect>
	</g>
</g>
</svg>
