<?xml version="1.0" encoding="UTF-8"?>
<!-- Generator: Adobe Illustrator 27.6.1, SVG Export Plug-In . SVG Version: 6.00 Build 0)  -->
<svg xmlns="http://www.w3.org/2000/svg" xmlns:xlink="http://www.w3.org/1999/xlink" version="1.1" id="Layer_2_00000082329229293209233450000012112276978148197266_" x="0px" y="0px" viewBox="0 0 291.8 133.6" style="enable-background:new 0 0 291.8 133.6;" xml:space="preserve">
<style type="text/css">
	.st0{fill:#FFFFFF;}
	.st1{fill:#231F20;}
	.st2{fill:none;}
</style>
<g id="Layer_1-2">
	<g>
		<g>
			<path class="st0" d="M104.9,66.4c0,5.1-2.1,10-3.9,14.4s-4.7,8.8-8.2,12.3c-3.5,3.5-7.6,6.4-12.2,8.3c-4.4,1.8-9.4,3.3-14.5,3.3     s-10.2-1.2-14.6-3.1c-4.6-1.9-7.7-6-11.2-9.5c-3.5-3.5-7.3-6.7-9.2-11.3c-1.8-4.4-2.2-9.4-2.2-14.5c0-5.1-0.6-10.5,1.2-14.9     c1.9-4.6,5.9-8.3,9.4-11.7c3.5-3.5,7.3-7.1,11.9-9c4.4-1.8,9.7-2,14.7-2c5.1,0,10,0.9,14.4,2.8c4.4,1.8,9,4.5,12.5,7.9     s6.5,7.7,8.4,12.3C103.2,56.2,104.9,61.3,104.9,66.4z"></path>
			<polygon class="st1" points="76.8,44.7 68.7,45.9 71,61.5 54.2,48.5 49.2,55 64,66.4 49.2,77.8 54.2,84.3 71,71.3 68.7,86.9      76.8,88.1 80,66.4    "></polygon>
		</g>
		<g>
			<path class="st0" d="M171,59.8c-4,0-7.8,1.2-10.4,2.8c-0.5,0.3-0.6,0.6-0.3,1.1l1.6,3.5c0.3,0.6,0.7,0.6,1.2,0.3     c1.9-1.1,4.4-2,7-2c1.3,0,2.5,0.3,3.1,1.1c0.6,0.7,0.8,1.6,0.8,2.9v0.6c-3,0.2-7,0.7-10.1,2c-2.7,1.2-4.6,3.2-4.6,6.5     c0,2.5,0.9,4.5,2.5,5.8c1.5,1.3,3.6,2.1,5.9,2.1c2.6,0,4.5-0.4,6.8-1.8h0.2v0.5c0,0.5,0.4,0.8,0.9,0.8h4.9c0.4,0,0.8-0.4,0.8-0.8     V69.5c0-3.2-0.8-5.2-2.2-6.8C176.9,60.3,173.6,59.8,171,59.8L171,59.8z M174,79.9c-1.3,0.8-2.6,1.1-3.9,1.1     c-2.1,0-3.8-0.8-3.8-2.6c0-2.7,4.4-3.2,7.7-3.3C174,75.1,174,79.9,174,79.9z"></path>
			<path class="st0" d="M202.3,71.8c-1.8-0.9-3.4-1.4-5.2-2.1c-1.3-0.5-2.5-1.1-2.5-2.2c0-1.3,1.1-1.8,2.6-1.8     c1.6,0,3.5,0.4,5.8,1.6c0.4,0.2,0.8,0.2,1-0.3l2-4.1c0.2-0.4,0.2-0.8-0.3-1.1c-2-1.1-4.6-2-8.7-2c-6.6,0-10.2,3-10.2,7.6     c0,3.2,1.4,5.4,4.1,6.7c1.8,0.9,3.7,1.5,5.4,2.2c1.4,0.6,2.4,1.1,2.4,2.3c0,1.3-1.1,2-3,2c-2.4,0-4.1-0.8-6.3-2.1     c-0.4-0.2-0.8-0.1-1.1,0.3l-2.1,4.3c-0.2,0.4-0.1,0.8,0.4,1.1c2,1.1,4.6,2.1,9.2,2.1c6.5,0,10.6-3.5,10.6-8.2     C206.5,75.5,205.3,73.2,202.3,71.8L202.3,71.8z"></path>
			<path class="st0" d="M221.8,59.8c-3.3,0-6.7,0.3-9,0.9c-0.6,0.2-0.8,0.5-0.8,1v36.4c0,0.5,0.3,0.9,0.8,0.9h5.7     c0.4,0,0.8-0.4,0.8-0.9V86c1.2,0.3,2.5,0.4,3.9,0.4c3.9,0,8-1.2,10.6-4.2c1.8-2.1,3-5.1,3-9.1c0-4-1.3-7.1-3.6-9.3     C230.6,61.1,226.4,59.8,221.8,59.8z M227.5,78.8c-1.4,1.2-3.2,1.6-5.1,1.6c-1.2,0-2.2-0.2-3.1-0.5V66.1c0.9-0.2,2.2-0.2,3.2-0.2     c2.2,0,4,0.7,5.2,2.1c1.1,1.3,1.8,3,1.8,5.2C229.5,75.8,228.7,77.7,227.5,78.8L227.5,78.8z"></path>
			<path class="st0" d="M260.7,62.7c-2.2-2.4-5.5-2.9-8.1-2.9c-4,0-7.8,1.2-10.4,2.8c-0.5,0.3-0.6,0.6-0.3,1.1l1.6,3.5     c0.3,0.6,0.7,0.6,1.2,0.3c1.9-1.1,4.4-2,7-2c1.3,0,2.5,0.3,3.1,1.1c0.6,0.7,0.8,1.6,0.8,2.9v0.6c-3,0.2-7,0.7-10.1,2     c-2.7,1.2-4.6,3.2-4.6,6.5c0,2.5,0.9,4.5,2.5,5.8c1.5,1.3,3.6,2.1,5.9,2.1c2.6,0,4.5-0.4,6.8-1.8h0.2v0.4c0,0.5,0.4,0.8,0.9,0.8     h4.9c0.4,0,0.8-0.4,0.8-0.8V69.5C263,66.3,262.1,64.3,260.7,62.7L260.7,62.7z M255.6,79.9c-1.3,0.8-2.6,1.1-3.9,1.1     c-2.1,0-3.8-0.8-3.8-2.6c0-2.7,4.4-3.2,7.7-3.3C255.6,75.1,255.6,79.9,255.6,79.9z"></path>
			<path class="st0" d="M157.2,47.8h-8.1c-0.7,0-1.2,0.3-1.7,0.8L136,59.9V48.7c0-0.5-0.3-0.8-0.8-0.8h-6.3c-0.5,0-0.9,0.4-0.9,0.8     v36.4c0,0.4,0.4,0.8,0.9,0.8h6.3c0.5,0,0.8-0.4,0.8-0.8V73.9l11.4,11.2c0.5,0.6,1.1,0.8,1.7,0.8h8.1c0.7,0,1-0.7,0.4-1.3     l-18.1-17.7l18.1-17.7C158.2,48.5,158,47.9,157.2,47.8L157.2,47.8z"></path>
		</g>
	</g>
	<rect class="st2" width="291.8" height="133.6"></rect>
</g>
</svg>
