<?xml version="1.0" encoding="UTF-8"?>
<!-- Generator: Adobe Illustrator 27.6.1, SVG Export Plug-In . SVG Version: 6.00 Build 0)  -->
<svg xmlns="http://www.w3.org/2000/svg" xmlns:xlink="http://www.w3.org/1999/xlink" version="1.1" id="Layer_2_00000168811758566191920140000009395983350948336538_" x="0px" y="0px" viewBox="0 0 192.4 195.4" style="enable-background:new 0 0 192.4 195.4;" xml:space="preserve">
<style type="text/css">
	.st0{fill:#FFFFFF;}
	.st1{fill:#231F20;}
	.st2{fill:none;}
</style>
<g id="Layer_1-2">
	<g>
		<g>
			<path class="st0" d="M134.5,66.6c0,5.1-2.1,10-4,14.5c-1.9,4.6-4.7,8.8-8.2,12.3s-7.6,6.5-12.2,8.4c-4.4,1.8-9.5,3.4-14.6,3.4     s-10.2-1.3-14.7-3.1c-4.6-1.9-7.8-6.1-11.2-9.5c-3.5-3.5-7.4-6.7-9.3-11.3c-1.8-4.4-2.2-9.5-2.2-14.6s-0.6-10.5,1.2-15     c1.9-4.6,5.9-8.3,9.4-11.8c3.5-3.5,7.3-7.1,11.9-9c4.4-1.8,9.7-2,14.8-2c5.1,0,10.1,0.9,14.5,2.8c4.6,1.9,9.1,4.5,12.5,8     c3.5,3.5,6.5,7.8,8.4,12.3C132.8,56.3,134.5,61.5,134.5,66.6z"></path>
			<polygon class="st1" points="106.2,44.8 98.1,46 100.4,61.7 83.5,48.6 78.5,55.1 93.4,66.6 78.5,78 83.5,84.5 100.4,71.5      98.1,87.2 106.2,88.4 109.4,66.6    "></polygon>
		</g>
		<g>
			<path class="st0" d="M63.9,135.1c-0.6,0.3-1,0.3-1.2-0.3l-1.6-3.5c-0.2-0.5-0.2-0.8,0.3-1.1c2.6-1.6,6.4-2.8,10.4-2.8     c2.6,0,5.9,0.5,8.1,2.9c1.4,1.6,2.2,3.6,2.2,6.8v15.5c0,0.4-0.4,0.8-0.8,0.8h-4.9c-0.5,0-0.9-0.4-0.9-0.8v-0.4h-0.2     c-2.3,1.4-4.2,1.8-6.8,1.8c-2.3,0-4.4-0.7-5.9-2.1c-1.6-1.3-2.5-3.3-2.5-5.8c0-3.3,2-5.2,4.6-6.5c3.1-1.3,7.1-1.8,10.1-2v-0.6     c0-1.3-0.2-2.2-0.8-2.9c-0.6-0.8-1.8-1.1-3.1-1.1C68.3,133.1,65.8,134.1,63.9,135.1L63.9,135.1z M74.8,147.5v-4.8     c-3.3,0.1-7.7,0.6-7.7,3.3c0,1.8,1.7,2.6,3.8,2.6C72.1,148.6,73.5,148.3,74.8,147.5L74.8,147.5z"></path>
			<path class="st0" d="M99.5,146.3c0-1.2-1-1.7-2.4-2.3c-1.6-0.7-3.6-1.3-5.3-2.2c-2.7-1.3-4.1-3.5-4.1-6.7c0-4.7,3.6-7.6,10.2-7.6     c4.1,0,6.6,0.8,8.6,1.9c0.6,0.3,0.6,0.7,0.3,1.1l-2,4.1c-0.2,0.4-0.6,0.5-1,0.3c-2.2-1.2-4.1-1.6-5.7-1.6c-1.5,0-2.6,0.5-2.6,1.8     c0,1.1,1.2,1.7,2.4,2.2c1.8,0.7,3.4,1.2,5.2,2.1c3,1.4,4.2,3.7,4.2,6.5c0,4.7-4.1,8.2-10.5,8.2c-4.6,0-7.2-1-9.2-2.1     c-0.5-0.3-0.6-0.7-0.4-1.1l2.1-4.3c0.2-0.4,0.6-0.6,1.1-0.3c2.2,1.3,3.9,2.1,6.3,2.1C98.3,148.3,99.5,147.7,99.5,146.3     L99.5,146.3z"></path>
			<path class="st0" d="M122.5,127.4c4.7,0,8.8,1.3,11.5,4c2.2,2.2,3.6,5.3,3.6,9.3s-1.2,7-3,9.1c-2.6,3-6.7,4.2-10.6,4.2     c-1.4,0-2.7-0.1-3.9-0.4v12.1c0,0.5-0.4,0.9-0.8,0.9h-5.7c-0.5,0-0.8-0.4-0.8-0.9v-36.4c0-0.5,0.3-0.8,0.8-1     C115.8,127.7,119.2,127.4,122.5,127.4z M120,147.5c0.9,0.3,1.9,0.5,3.1,0.5c1.8,0,3.7-0.4,5.1-1.6c1.2-1.1,2-3,2-5.6     c0-2.2-0.7-4-1.8-5.2c-1.2-1.3-3.1-2.1-5.2-2.1c-1,0-2.2,0.1-3.2,0.2L120,147.5L120,147.5z"></path>
			<path class="st0" d="M145.4,135.1c-0.6,0.3-0.9,0.3-1.2-0.3l-1.6-3.5c-0.2-0.5-0.2-0.8,0.3-1.1c2.6-1.6,6.4-2.8,10.4-2.8     c2.6,0,5.9,0.5,8.1,2.9c1.4,1.6,2.2,3.6,2.2,6.8v15.5c0,0.4-0.4,0.8-0.8,0.8h-4.9c-0.5,0-0.9-0.4-0.9-0.8v-0.4h-0.2     c-2.3,1.4-4.2,1.8-6.8,1.8c-2.3,0-4.4-0.7-5.9-2.1c-1.6-1.3-2.5-3.3-2.5-5.8c0-3.3,1.9-5.2,4.6-6.5c3.1-1.3,7.1-1.8,10.1-2v-0.6     c0-1.3-0.2-2.2-0.8-2.9c-0.6-0.8-1.8-1.1-3.1-1.1C149.8,133.1,147.3,134.1,145.4,135.1L145.4,135.1z M156.2,147.5v-4.8     c-3.4,0.1-7.7,0.6-7.7,3.3c0,1.8,1.7,2.6,3.8,2.6C153.6,148.6,155,148.3,156.2,147.5L156.2,147.5z"></path>
			<path class="st0" d="M58.4,152.2c0.6,0.6,0.3,1.3-0.4,1.3H50c-0.7,0-1.2-0.3-1.7-0.8l-11.4-11.2v11.2c0,0.4-0.3,0.8-0.8,0.8h-6.3     c-0.5,0-0.9-0.4-0.9-0.8v-36.3c0-0.4,0.4-0.8,0.9-0.8H36c0.5,0,0.8,0.4,0.8,0.8v11.2l11.4-11.2c0.5-0.6,1.1-0.8,1.7-0.8h8.1     c0.7,0,1,0.7,0.4,1.3l-18.1,17.7L58.4,152.2z"></path>
		</g>
	</g>
	<rect y="0" class="st2" width="192.4" height="195.4"></rect>
</g>
</svg>
