<?xml version="1.0" encoding="UTF-8"?>
<svg xmlns="http://www.w3.org/2000/svg" id="Layer_2" viewBox="0 0 192.42 195.4">
  <defs>
    <style>.cls-1{fill:none;}.cls-2{fill:#fff;}.cls-3{fill:#1a1a1a;}.cls-4{fill:#6fc7ba;}</style>
  </defs>
  <g id="Layer_1-2">
    <g>
      <g>
        <g>
          <path class="cls-4" d="m134.43,66.58c0,5.11-2.11,10.05-3.96,14.5s-4.71,8.85-8.18,12.32c-3.47,3.47-7.64,6.46-12.24,8.37-4.44,1.84-9.46,3.36-14.57,3.36s-10.24-1.26-14.68-3.1c-4.61-1.91-7.76-6.06-11.23-9.54-3.47-3.47-7.36-6.73-9.27-11.34s-2.22-9.46-2.22-14.57-.6-10.53,1.24-14.98c1.91-4.61,5.94-8.29,9.42-11.76,3.47-3.47,7.32-7.1,11.93-9.01,4.44-1.84,9.7-2.03,14.81-2.03s10.06.93,14.5,2.77c4.61,1.91,9.05,4.51,12.52,7.99,3.47,3.47,6.48,7.75,8.39,12.35,1.84,4.44,3.54,9.56,3.54,14.67Z"></path>
          <polygon class="cls-3" points="106.18 44.79 98.08 45.99 100.39 61.66 83.44 48.61 78.45 55.12 93.32 66.58 78.45 78.03 83.44 84.55 100.39 71.49 98.08 87.16 106.18 88.36 109.4 66.58 106.18 44.79"></polygon>
        </g>
        <g>
          <path class="cls-2" d="m63.89,135.15c-.56.33-.95.33-1.23-.28l-1.62-3.51c-.22-.5-.17-.78.33-1.12,2.57-1.62,6.36-2.79,10.37-2.79,2.57,0,5.91.5,8.09,2.9,1.39,1.56,2.23,3.57,2.23,6.8v15.51c0,.45-.39.84-.84.84h-4.91c-.5,0-.89-.39-.89-.84v-.45h-.22c-2.29,1.45-4.24,1.84-6.8,1.84-2.29,0-4.41-.73-5.91-2.06-1.56-1.28-2.51-3.29-2.51-5.8,0-3.29,1.95-5.24,4.63-6.47,3.07-1.34,7.08-1.79,10.09-2.01v-.56c0-1.28-.22-2.23-.78-2.9-.61-.78-1.78-1.12-3.07-1.12-2.62,0-5.08.95-6.97,2.01Zm10.82,12.38v-4.85c-3.35.11-7.7.56-7.7,3.29,0,1.78,1.73,2.62,3.79,2.62,1.28,0,2.62-.28,3.9-1.06Z"></path>
          <path class="cls-2" d="m99.41,146.3c0-1.23-1-1.67-2.4-2.29-1.62-.72-3.57-1.34-5.35-2.23-2.73-1.34-4.13-3.46-4.13-6.69,0-4.68,3.62-7.64,10.21-7.64,4.07,0,6.64.84,8.64,1.95.56.28.56.73.33,1.12l-2.01,4.13c-.22.45-.56.5-1,.28-2.23-1.23-4.13-1.62-5.74-1.62-1.51,0-2.62.5-2.62,1.79,0,1.12,1.17,1.67,2.45,2.18,1.78.73,3.4,1.23,5.19,2.12,3.01,1.45,4.18,3.74,4.18,6.47,0,4.68-4.07,8.2-10.54,8.2-4.63,0-7.25-1-9.2-2.12-.5-.28-.61-.67-.39-1.06l2.06-4.29c.22-.45.61-.56,1.06-.33,2.23,1.28,3.9,2.06,6.3,2.06,1.84,0,2.96-.67,2.96-2.01Z"></path>
          <path class="cls-2" d="m122.41,127.45c4.68,0,8.81,1.34,11.49,4.02,2.23,2.18,3.57,5.3,3.57,9.31s-1.17,6.97-3.01,9.09c-2.62,2.96-6.69,4.18-10.6,4.18-1.45,0-2.68-.11-3.9-.45v12.1c0,.5-.39.89-.84.89h-5.69c-.5,0-.84-.39-.84-.89v-36.36c0-.5.28-.84.84-1,2.29-.61,5.69-.89,8.98-.89Zm-2.45,20.08c.89.33,1.9.5,3.12.5,1.84,0,3.68-.39,5.08-1.62,1.23-1.12,2.01-3.01,2.01-5.63,0-2.23-.67-3.96-1.78-5.24-1.23-1.34-3.07-2.06-5.24-2.06-1,0-2.23.06-3.18.22v13.83Z"></path>
          <path class="cls-2" d="m145.39,135.15c-.56.33-.95.33-1.23-.28l-1.62-3.51c-.22-.5-.17-.78.33-1.12,2.57-1.62,6.36-2.79,10.37-2.79,2.57,0,5.91.5,8.09,2.9,1.39,1.56,2.23,3.57,2.23,6.8v15.51c0,.45-.39.84-.84.84h-4.91c-.5,0-.89-.39-.89-.84v-.45h-.22c-2.29,1.45-4.24,1.84-6.8,1.84-2.29,0-4.41-.73-5.91-2.06-1.56-1.28-2.51-3.29-2.51-5.8,0-3.29,1.95-5.24,4.63-6.47,3.07-1.34,7.08-1.79,10.09-2.01v-.56c0-1.28-.22-2.23-.78-2.9-.61-.78-1.78-1.12-3.07-1.12-2.62,0-5.08.95-6.97,2.01Zm10.82,12.38v-4.85c-3.35.11-7.7.56-7.7,3.29,0,1.78,1.73,2.62,3.79,2.62,1.28,0,2.62-.28,3.9-1.06Z"></path>
          <path class="cls-2" d="m58.41,152.21c.62.62.34,1.29-.39,1.29h-8.08c-.67,0-1.23-.28-1.73-.84l-11.42-11.17v11.17c0,.45-.33.84-.83.84h-6.31c-.5,0-.89-.39-.89-.84v-36.31c0-.44.39-.83.89-.83h6.31c.5,0,.83.39.83.83v11.17l11.42-11.17c.5-.56,1.06-.83,1.73-.83h8.08c.73,0,1.01.66.39,1.28l-18.1,17.71,18.1,17.7Z"></path>
        </g>
      </g>
      <rect class="cls-1" x="-1.49" y="1.49" width="195.4" height="192.42" transform="translate(193.91 1.49) rotate(90)"></rect>
    </g>
  </g>
</svg>
